<?xml version="1.0" standalone="no"?>
<!DOCTYPE svg PUBLIC "-//W3C//DTD SVG 20010904//EN"
 "http://www.w3.org/TR/2001/REC-SVG-20010904/DTD/svg10.dtd">
<svg version="1.0" xmlns="http://www.w3.org/2000/svg"
 width="512.000000pt" height="512.000000pt" viewBox="0 0 512.000000 512.000000"
 preserveAspectRatio="xMidYMid meet">

<g transform="translate(0.000000,512.000000) scale(0.100000,-0.100000)"
fill="#000000" stroke="none">
<path d="M444 5110 c-201 -30 -356 -161 -417 -355 l-22 -70 0 -2125 0 -2125
22 -70 c52 -165 173 -286 338 -338 l70 -22 2125 0 2125 0 70 22 c165 52 286
173 338 338 l22 70 0 2125 0 2125 -22 71 c-51 160 -171 282 -333 337 l-65 22
-2100 1 c-1155 1 -2123 -2 -2151 -6z m1796 -814 c78 -29 116 -61 146 -122 53
-108 46 -259 -31 -719 -24 -143 -57 -325 -74 -405 -29 -144 -29 -159 5 -160 6
0 18 17 28 38 64 134 230 331 353 418 82 59 193 109 300 136 132 33 349 32
452 -1 363 -120 574 -589 522 -1161 -47 -504 -294 -908 -738 -1207 -588 -394
-1436 -428 -1792 -73 -185 186 -261 495 -221 901 24 239 130 914 225 1432 25
137 45 255 45 262 0 7 -54 91 -120 186 -66 95 -117 176 -113 180 14 14 206
120 326 180 125 63 259 113 348 128 81 15 285 6 339 -13z"/>
<path d="M2650 2861 c-243 -78 -416 -365 -519 -863 -39 -188 -60 -360 -68
-540 -7 -172 -24 -155 134 -137 412 46 755 329 896 740 30 87 57 238 57 322 0
199 -107 410 -241 475 -58 28 -177 29 -259 3z"/>
</g>
</svg>
