<?xml version="1.0" encoding="UTF-8"?>
<svg xmlns="http://www.w3.org/2000/svg" xmlns:xlink="http://www.w3.org/1999/xlink" version="1.1" viewBox="0 0 180 180">
  <defs>
    <style>
      .cls-1 {
        fill: url(#linear-gradient-2);
      }

      .cls-1, .cls-2, .cls-3, .cls-4 {
        fill-rule: evenodd;
      }

      .cls-2 {
        fill: #fff;
      }

      .cls-5 {
        fill: #3b00b9;
      }

      .cls-3 {
        fill: #29abe2;
      }

      .cls-4 {
        fill: url(#linear-gradient);
      }
    </style>
    <linearGradient id="linear-gradient" x1="65.4" y1="762.1" x2="16.7" y2="721.1" gradientTransform="translate(0 -610)" gradientUnits="userSpaceOnUse">
      <stop offset=".2" stop-color="#ed1e79"/>
      <stop offset="1" stop-color="#522785"/>
    </linearGradient>
    <linearGradient id="linear-gradient-2" x1="154.7" y1="671.5" x2="106" y2="630.6" gradientTransform="translate(0 -610)" gradientUnits="userSpaceOnUse">
      <stop offset=".2" stop-color="#f15a24"/>
      <stop offset=".7" stop-color="#fbb03b"/>
    </linearGradient>
  </defs>
  <!-- Generator: Adobe Illustrator 28.6.0, SVG Export Plug-In . SVG Version: 1.2.0 Build 709)  -->
  <g>
    <g id="ckBTC_Token">
      <path id="Background" class="cls-5" d="M90,0h0c49.7,0,90,40.3,90,90h0c0,49.7-40.3,90-90,90h0C40.3,180,0,139.7,0,90h0C0,40.3,40.3,0,90,0Z"/>
      <g id="Corner_Elements">
        <path class="cls-4" d="M20.2,95.2c2.5,34.5,30.1,62.1,64.6,64.6v7.8c-38.8-2.6-69.8-33.6-72.4-72.4h7.8Z"/>
        <path class="cls-1" d="M159.8,84.7c-2.5-34.5-30.1-62.1-64.6-64.6v-7.8c38.8,2.6,69.9,33.6,72.4,72.4h-7.8Z"/>
        <path class="cls-3" d="M95.2,159.8c34.5-2.5,62.1-30.1,64.6-64.6h7.8c-2.5,38.8-33.6,69.8-72.4,72.4v-7.8Z"/>
        <path class="cls-3" d="M84.8,20.2c-34.5,2.5-62.1,30.1-64.6,64.6h-7.8C14.9,46,46,14.9,84.8,12.4v7.8Z"/>
        <path class="cls-2" d="M106.7,37.9c-1.6-.5-3,.5-3,2.2v4.2c0,1.2.9,2.5,2,2.9,17.5,6.4,30,23.2,30,42.8s-12.5,36.4-30,42.8c-1.2.4-2,1.6-2,2.9v4.2c0,1.7,1.3,2.7,3,2.2,22.1-7,38-27.7,38-52.1s-16-45.1-38-52.1ZM76.3,40.1c0-1.7-1.3-2.7-3-2.2-22.1,7-38,27.7-38,52.1s16,45.1,38,52.1c1.6.5,3-.4,3-2.2v-4.2c0-1.2-.9-2.5-2-2.9-17.5-6.4-30-23.2-30-42.8s12.5-36.4,30-42.8c1.1-.4,2-1.7,2-2.9v-4.2ZM92.3,53.5h-4.6c-1.3,0-2.3,1-2.3,2.3v7.1c-9,1.3-14.9,7.3-14.9,15s6,13.9,18.8,15.6c8.6,1.4,11.1,3.3,11.1,8.2s-4.2,8.2-10.1,8.2-10.6-3.5-11.5-8c-.2-1.1-1.1-1.9-2.2-1.9h-5.2c-1.3,0-2.3,1.2-2.1,2.5,1.3,7.6,6.2,13.2,16.1,14.5v7.2c0,1.3,1,2.3,2.3,2.3h4.6c1.3,0,2.3-1,2.3-2.3v-7.2c9.4-1.5,15.4-8,15.4-16.2s-6.5-14.2-19-15.9c-9.2-1.3-11-3.5-11-7.8s3.1-7,9.2-7,8.6,1.9,9.9,6.3c.3,1,1.2,1.7,2.2,1.7h4.8c1.3,0,2.4-1.2,2.1-2.5-1.5-6.9-6.2-11.1-13.5-12.4v-7.3c0-1.3-1-2.3-2.3-2.3h0Z"/>
      </g>
    </g>
  </g>
</svg>